<svg xmlns="http://www.w3.org/2000/svg" width="24" height="24" viewBox="0 0 24 24">
  
  <path id="blade1" d="M6.37 8.75 l7.8 -6.51 C13.47 2.09 12.75 2 12 2 c -2.4 0 -4.6 .85 -6.32 2.25 L6.23 8.97 z" fill="#ffffffff"></path>
  
  <path id="blade2" d="M21.54 9 c -0.92 -2.92 -3.15 -5.26 -6 -6.34 L11.74 5.51 l9.8 3.49 z" fill="#ffffffff"></path>
  
  <path id="blade3" d="M21.8 10 h -7.49 l3.32 -1.25 l1.73 10 C21 16.97 22 14.61 22 12 c0 -0.69 -0.07 -1.35 -0.2 -2 z" fill="#ffffffff"></path>
  
  <path id="blade4" d="M5.27 12 l -0.63 -6.75 C3.01 7.03 2 9.39 2 12 c0 .69 .07 1.35 .2 2 l4.87 2.27 l -1.8 -4.27 z" fill="#ffffffff"></path>
  
  <path id="blade5" d="M2.46 15 c 0.92 2.92 3.15 5.26 6 6.34 L12.26 16.5 l -9.8 -1.5 z" fill="#ffffffff"></path>
  
  <path id="blade6" d="M16 18.94 l -6.17 2.82 c 0.7 0.15 1.42 0.24 2.17 0.24 c 2.4 0 4.6 -0.85 6.32 -2.25 l -2.95 -1.92 z" fill="#ffffffff"></path>
</svg>